<?xml version="1.0" encoding="UTF-8"?><svg id="uuid-c8ad8698-9186-4d3b-9c9e-8d775b6f4316" xmlns="http://www.w3.org/2000/svg" width="154" height="50" viewBox="0 0 154 50"><defs><style>.uuid-840bfc2d-07a0-4d22-8813-23d7884237aa{fill:#fff;}</style></defs><path class="uuid-840bfc2d-07a0-4d22-8813-23d7884237aa" d="m35.9215,39.0817c-.7614,0-1.3443-.2155-1.7494-.6448-.4055-.4297-.6083-1.0249-.6083-1.7863V14.9541c0-.7855.2028-1.387.6083-1.8049.405-.4171.988-.6262,1.7494-.6262s1.3448.2091,1.7498.6262c.4048.4179.6076,1.0194.6076,1.8049v21.6966c0,.7614-.1967,1.3566-.5892,1.7863-.393.4292-.9825.6448-1.7682.6448Z"/><path class="uuid-840bfc2d-07a0-4d22-8813-23d7884237aa" d="m50.1034,39.1554c-1.0559,0-2.1735-.1105-3.3522-.3314-1.1785-.2211-2.2345-.6015-3.1675-1.1422-.393-.2448-.6696-.534-.829-.8654-.16-.3317-.2209-.6633-.1844-.9945.0372-.3317.1598-.6199.3684-.8659.2086-.2453.4789-.405.8106-.4789.3317-.0736.6935-.0121,1.0865.1842.982.4671,1.9031.7922,2.763.9764.8593.1842,1.7066.2762,2.5416.2762,1.1787,0,2.0564-.2025,2.6338-.6081.5767-.4048.8654-.939.8654-1.6021,0-.5649-.1902-1.0003-.5706-1.3076-.3812-.3071-.9523-.5345-1.7131-.6814l-3.6834-.7001c-1.5229-.2945-2.6831-.8528-3.4811-1.676-.7983-.8227-1.1973-1.884-1.1973-3.1863,0-1.1787.3251-2.1974.9764-3.0572.6503-.8591,1.5529-1.5225,2.7075-1.989,1.1541-.4666,2.48-.7,3.9781-.7,1.0805,0,2.0936.1166,3.0391.3498.9453.2339,1.8599.5958,2.7444,1.0867.3684.1968.6196.4546.7548.7737.1347.3194.1659.6445.0922.9762-.0737.3317-.2209.6259-.4423.8837-.2206.258-.497.4181-.8285.4789-.3314.0618-.7063-.0058-1.1234-.202-.7614-.3932-1.4918-.6757-2.1921-.8472-.6995-.1721-1.3691-.2581-2.0074-.2581-1.2035,0-2.0938.2088-2.6707.6259-.5772.4178-.8654.9706-.8654,1.6579,0,.5156.1714.9458.5156,1.289.3435.3445.8714.5772,1.5838.6998l3.6839.7c1.5958.295,2.8052.8352,3.6281,1.6209.8227.7862,1.2337,1.8418,1.2337,3.1678,0,1.7931-.6998,3.1989-2.0991,4.2178-1.3998,1.0194-3.2665,1.5287-5.5993,1.5287Z"/><path class="uuid-840bfc2d-07a0-4d22-8813-23d7884237aa" d="m70.4733,39.0817c-.7609,0-1.3446-.2155-1.7491-.6448-.4055-.4297-.6083-1.0372-.6083-1.8235v-11.1981l.995,2.8363-8.8778-12.4874c-.3196-.442-.4606-.9146-.4234-1.4182.0362-.503.239-.9332.6073-1.2893.3684-.3553.8844-.534,1.5473-.534.491,0,.9394.1229,1.344.3684.4055.2457.7922.6262,1.1606,1.1415l6.5938,9.3565h-1.0317l6.631-9.3565c.393-.5397.7734-.9264,1.1418-1.1598.3684-.2332.8227-.3501,1.3624-.3501.6387,0,1.136.1656,1.4922.497.3558.3319.5402.7432.5523,1.2342.0121.4915-.1656,1.0073-.534,1.5471l-8.804,12.4504.9578-2.8363v11.1981c0,1.6456-.7859,2.4682-2.3574,2.4682Z"/><path class="uuid-840bfc2d-07a0-4d22-8813-23d7884237aa" d="m89.407,39.1554c-1.8669,0-3.4871-.3804-4.8621-1.1422-1.3754-.7606-2.4433-1.8471-3.2047-3.2598-.7618-1.4119-1.1418-3.0758-1.1418-4.9912,0-1.4485.2149-2.7441.6446-3.8861.4292-1.142,1.0495-2.124,1.8606-2.9471.8096-.8224,1.7795-1.4486,2.9097-1.8785,1.1287-.4292,2.3946-.6445,3.7937-.6445,1.8659,0,3.4871.3809,4.863,1.142,1.3745.7614,2.4429,1.8416,3.2047,3.2414.7604,1.4,1.1413,3.0574,1.1413,4.9728,0,1.4491-.2153,2.7504-.644,3.9048-.4311,1.1541-1.05,2.1426-1.8611,2.965-.8091.8234-1.7795,1.4496-2.9092,1.8787-1.1307.4297-2.3951.6448-3.7947.6448Zm0-3.4997c.9081,0,1.7071-.2209,2.3946-.6628.6875-.442,1.2214-1.0988,1.6024-1.9709.3809-.8712.5706-1.9577.5706-3.2598,0-1.9647-.4176-3.4316-1.2523-4.4017-.8357-.9699-1.9398-1.4548-3.3153-1.4548-.9086,0-1.7066.215-2.3941.6445-.6875.4294-1.2219,1.0804-1.6023,1.9519-.3809.8722-.5711,1.9589-.5711,3.2602,0,1.9401.4176,3.4072,1.2528,4.402.8342.9946,1.9389,1.4916,3.3148,1.4916Z"/><path class="uuid-840bfc2d-07a0-4d22-8813-23d7884237aa" d="m108.9292,39.1554c-1.4976,0-2.7383-.2764-3.7194-.8289-.983-.5526-1.7139-1.3815-2.1923-2.4866-.4784-1.1046-.7184-2.48-.7184-4.1253v-8.9143c0-.7857.1965-1.3687.59-1.7498.3915-.3805.9568-.5709,1.694-.5709.7363,0,1.3069.1904,1.7124.5709.4055.3812.6088.9641.6088,1.7498v8.9879c0,1.2772.2573,2.2227.7724,2.8366.5166.6141,1.3392.9207,2.4684.9207,1.2277,0,2.2339-.4237,3.0203-1.2707.7859-.8473,1.1794-1.9709,1.1794-3.3708v-8.1037c0-.7857.1965-1.3687.589-1.7498.3925-.3805.9574-.5709,1.695-.5709.7358,0,1.3069.1904,1.7124.5709.4046.3812.6069.9641.6069,1.7498v13.9239c0,1.5719-.7483,2.3576-2.2459,2.3576-.7136,0-1.2654-.2028-1.6579-.6081-.3935-.4053-.59-.988-.59-1.7496v-2.7997l.5166,1.1051c-.5166,1.3262-1.2958,2.3456-2.34,3.0577-1.0438.7121-2.2773,1.0681-3.7019,1.0681Z"/><path class="uuid-840bfc2d-07a0-4d22-8813-23d7884237aa" d="m126.0949,39.0817c-.7618,0-1.345-.2028-1.7496-.6081-.4055-.4053-.6078-.988-.6078-1.7496v-13.9239c0-.7611.1965-1.3383.5899-1.7312.3915-.3925.9448-.5895,1.6579-.5895.7116,0,1.2635.197,1.6564.5895.393.393.5895.9701.5895,1.7312v2.3205h-.3688c.3447-1.4732,1.0196-2.5906,2.0267-3.3522,1.0076-.7609,2.3454-1.2154,4.0153-1.3626.5151-.049.9274.0801,1.2335.3867.308.3073.4852.7799.534,1.4181.0492.6143-.0918,1.1116-.4224,1.492-.3327.3809-.8299.6076-1.4927.6817l-.8106.0734c-1.4976.1473-2.6273.6076-3.3886,1.3813-.7604.7736-1.1418,1.8602-1.1418,3.2597v7.6253c0,.7616-.1965,1.3443-.5899,1.7496-.3925.4053-.9704.6081-1.7308.6081Z"/><path class="uuid-840bfc2d-07a0-4d22-8813-23d7884237aa" d="m144.5863,39.1554c-1.0563,0-2.173-.1105-3.352-.3314-1.1785-.2211-2.2343-.6015-3.1684-1.1422-.393-.2448-.6682-.534-.828-.8654-.1603-.3317-.2211-.6633-.1844-.9945.0362-.3317.1598-.6199.3688-.8659.2086-.2453.4785-.405.8101-.4789.3312-.0736.6933-.0121,1.0862.1842.9829.4671,1.9031.7922,2.7625.9764.8594.1842,1.7066.2762,2.5418.2762,1.1795,0,2.0567-.2025,2.6336-.6081.5779-.4048.8666-.939.8666-1.6021,0-.5649-.1912-1.0003-.5706-1.3076-.3823-.3071-.953-.5345-1.7139-.6814l-3.6826-.7001c-1.5241-.2945-2.6843-.8528-3.4813-1.676-.7985-.8227-1.1973-1.884-1.1973-3.1863,0-1.1787.3245-2.1974.9762-3.0572.6498-.8591,1.5522-1.5225,2.7075-1.989,1.1534-.4666,2.4805-.7,3.9781-.7,1.0809,0,2.0933.1166,3.0396.3498.9448.2339,1.8597.5958,2.7436,1.0867.3684.1968.6194.4546.7551.7737.1342.3194.1651.6445.0922.9762-.0734.3317-.2211.6259-.4423.8837-.2211.258-.4972.4181-.8289.4789-.3317.0618-.7063-.0058-1.123-.202-.7618-.3932-1.4922-.6757-2.1918-.8472-.6995-.1721-1.3691-.2581-2.0074-.2581-1.2041,0-2.0948.2088-2.6708.6259-.5774.4178-.8666.9706-.8666,1.6579,0,.5156.1723.9458.5171,1.289.3428.3445.87.5772,1.583.6998l3.6836.7c1.5966.295,2.8059.8352,3.6286,1.6209.8231.7862,1.2335,1.8418,1.2335,3.1678,0,1.7931-.6996,3.1989-2.1001,4.2178-1.3986,1.0194-3.265,1.5287-5.5983,1.5287Z"/><rect class="uuid-840bfc2d-07a0-4d22-8813-23d7884237aa" x="13.0768" y="31.3066" width="1.4102" height="2.6968"/><path class="uuid-840bfc2d-07a0-4d22-8813-23d7884237aa" d="m13.8053,22.9313c-.2805.0089-8.3277-.7374-9.3408,7.1483,0,0-1.4773.8106-1.4879,1.5524l21.6047.3003s-.2622-1.1877-1.5389-1.5941c0,0,.1774-7.7296-9.2371-7.4068Z"/><path class="uuid-840bfc2d-07a0-4d22-8813-23d7884237aa" d="m12.2886,23.0254v-.5905s1.0717-.7422.9028-1.1369h1.0882s.652,1.1459.9945,1.1369v.61l-2.9855-.0195Z"/><path class="uuid-840bfc2d-07a0-4d22-8813-23d7884237aa" d="m2.5287,33.3536l22.7911.0473s-.7008,2.2657,1.9355,3.2322c0,0,1.2559,1.1427,0,1.1966H.7241s-1.466-.2062-.226-1.2331c0,0,2.0873-.3835,2.0306-3.243Z"/><rect class="uuid-840bfc2d-07a0-4d22-8813-23d7884237aa" x="13.415" y="19.9434" width=".6969" height="1.7641"/><path class="uuid-840bfc2d-07a0-4d22-8813-23d7884237aa" d="m15.5669,19.7256c0,.1721-.14.3109-.3114.3109h-2.9848c-.1711,0-.3102-.1388-.3102-.3109h0c0-.1704.139-.3095.3102-.3095h2.9848c.1714,0,.3114.1391.3114.3095h0Z"/><path class="uuid-840bfc2d-07a0-4d22-8813-23d7884237aa" d="m16.7244,24.2196s1.0146-.197,1.8423.6906c0,0,.4712.4642.5996.9238,0,0-.3705-.4615-1.2212-.8183,0,0-.8255-.3522-1.226-.4145,0,0-.3773-.3677.0053-.3817Z"/><polygon class="uuid-840bfc2d-07a0-4d22-8813-23d7884237aa" points="13.3169 8.6982 14.5377 5.2608 15.4402 8.7902 18.7074 7.1854 16.779 9.9262 20.2166 11.6779 16.6696 12.4776 18.108 15.8832 15.2423 13.3993 14.0281 17.2586 13.1219 13.3093 9.6495 15.0492 11.577 12.265 8.0068 10.9922 11.6617 10.2764 10.2267 6.7287 13.3169 8.6982" preserveAspectRatio="xMidYMid meet"/></svg>