<?xml version="1.0" encoding="UTF-8"?><svg id="uuid-afc20cd7-2a17-4801-bebb-39e40ec6960f" xmlns="http://www.w3.org/2000/svg" width="304.5692" height="67.7896" viewBox="0 0 304.5692 67.7896"><defs><style>.uuid-41a8433d-d04f-42d3-9e5b-3b3bf089314b{fill:#fff;}</style></defs><path class="uuid-41a8433d-d04f-42d3-9e5b-3b3bf089314b" d="m71.8429,67.6418c-1.5228,0-2.6886-.431-3.4988-1.2896-.811-.8594-1.2166-2.0498-1.2166-3.5726V19.3866c0-1.571.4056-2.774,1.2166-3.6098.81-.8342,1.976-1.2524,3.4988-1.2524s2.6896.4182,3.4996,1.2524c.8096.8358,1.2152,2.0388,1.2152,3.6098v43.3932c0,1.5228-.3934,2.7132-1.1784,3.5726-.786.8584-1.965,1.2896-3.5364,1.2896v-.0002Z"/><path class="uuid-41a8433d-d04f-42d3-9e5b-3b3bf089314b" d="m100.2067,67.7892c-2.1118,0-4.347-.221-6.7044-.6628-2.357-.4422-4.469-1.203-6.335-2.2844-.786-.4896-1.3392-1.068-1.658-1.7308-.32-.6634-.4418-1.3266-.3688-1.989.0744-.6634.3196-1.2398.7368-1.7318.4172-.4906.9578-.81,1.6212-.9578.6634-.1472,1.387-.0242,2.173.3684,1.964.9342,3.8062,1.5844,5.526,1.9528,1.7186.3684,3.4132.5524,5.0832.5524,2.3574,0,4.1128-.405,5.2676-1.2162,1.1534-.8096,1.7308-1.878,1.7308-3.2042,0-1.1298-.3804-2.0006-1.1412-2.6152-.7624-.6142-1.9046-1.069-3.4262-1.3628l-7.3668-1.4002c-3.0458-.589-5.3662-1.7056-6.9622-3.352-1.5966-1.6454-2.3946-3.768-2.3946-6.3726,0-2.3574.6502-4.3948,1.9528-6.1144,1.3006-1.7182,3.1058-3.045,5.415-3.978,2.3082-.9332,4.96-1.4,7.9562-1.4,2.161,0,4.1872.2332,6.0782.6996,1.8906.4678,3.7198,1.1916,5.4888,2.1734.7368.3936,1.2392.9092,1.5096,1.5474.2694.6388.3318,1.289.1844,1.9524s-.4418,1.2518-.8846,1.7674c-.4412.516-.994.8362-1.657.9578-.6628.1236-1.4126-.0116-2.2468-.404-1.5228-.7864-2.9836-1.3514-4.3842-1.6944-1.399-.3442-2.7382-.5162-4.0148-.5162-2.407,0-4.1876.4176-5.3414,1.2518-1.1544.8356-1.7308,1.9412-1.7308,3.3158,0,1.0312.3428,1.8916,1.0312,2.578.687.689,1.7428,1.1544,3.1676,1.3996l7.3678,1.4c3.1916.59,5.6104,1.6704,7.2562,3.2418,1.6454,1.5724,2.4674,3.6836,2.4674,6.3356,0,3.5862-1.3996,6.3978-4.1982,8.4356-2.7996,2.0388-6.533,3.0574-11.1986,3.0574l-.0002-.0004Z"/><path class="uuid-41a8433d-d04f-42d3-9e5b-3b3bf089314b" d="m140.9465,67.6418c-1.5218,0-2.6892-.431-3.4982-1.2896-.811-.8594-1.2166-2.0744-1.2166-3.647v-22.3962l1.99,5.6726-17.7556-24.9748c-.6392-.884-.9212-1.8292-.8468-2.8364.0724-1.006.478-1.8664,1.2146-2.5786.7368-.7106,1.7688-1.068,3.0946-1.068.982,0,1.8788.2458,2.688.7368.811.4914,1.5844,1.2524,2.3212,2.283l13.1876,18.713h-2.0634l13.262-18.713c.786-1.0794,1.5468-1.8528,2.2836-2.3196.7368-.4664,1.6454-.7002,2.7248-.7002,1.2774,0,2.272.3312,2.9844.994.7116.6638,1.0804,1.4864,1.1046,2.4684.0242.983-.3312,2.0146-1.068,3.0942l-17.608,24.9008,1.9156-5.6726v22.3962c0,3.2912-1.5718,4.9364-4.7148,4.9364l.0004.0006Z"/><path class="uuid-41a8433d-d04f-42d3-9e5b-3b3bf089314b" d="m178.8139,67.7892c-3.7338,0-6.9742-.7608-9.7242-2.2844-2.7508-1.5212-4.8866-3.6942-6.4094-6.5196-1.5236-2.8238-2.2836-6.1516-2.2836-9.9824,0-2.897.4298-5.4882,1.2892-7.7722.8584-2.284,2.099-4.248,3.7212-5.8942,1.6192-1.6448,3.559-2.8972,5.8194-3.757,2.2574-.8584,4.7892-1.289,7.5874-1.289,3.7318,0,6.9742.7618,9.726,2.284,2.749,1.5228,4.8858,3.6832,6.4094,6.4828,1.5208,2.8,2.2826,6.1148,2.2826,9.9456,0,2.8982-.4306,5.5008-1.288,7.8096-.8622,2.3082-2.1,4.2852-3.7222,5.93-1.6182,1.6468-3.559,2.8992-5.8184,3.7574-2.2614.8594-4.7902,1.2896-7.5894,1.2896v-.0002Zm0-6.9994c1.8162,0,3.4142-.4418,4.7892-1.3256,1.375-.884,2.4428-2.1976,3.2048-3.9418.7618-1.7424,1.1412-3.9154,1.1412-6.5196,0-3.9294-.8352-6.8632-2.5046-8.8034-1.6714-1.9398-3.8796-2.9096-6.6306-2.9096-1.8172,0-3.4132.43-4.7882,1.289-1.375.8588-2.4438,2.1608-3.2046,3.9038-.7618,1.7444-1.1422,3.9178-1.1422,6.5204,0,3.8802.8352,6.8144,2.5056,8.804,1.6684,1.9892,3.8778,2.9832,6.6296,2.9832l-.0002-.0004Z"/><path class="uuid-41a8433d-d04f-42d3-9e5b-3b3bf089314b" d="m217.8583,67.7892c-2.9952,0-5.4766-.5528-7.4388-1.6578-1.966-1.1052-3.4278-2.763-4.3846-4.9732-.9568-2.2092-1.4368-4.96-1.4368-8.2506v-17.8286c0-1.5714.393-2.7374,1.18-3.4996.783-.761,1.9136-1.1418,3.388-1.1418,1.4726,0,2.6138.3808,3.4248,1.1418.811.7624,1.2176,1.9282,1.2176,3.4996v17.9758c0,2.5544.5146,4.4454,1.5448,5.6732,1.0332,1.2282,2.6784,1.8414,4.9368,1.8414,2.4554,0,4.4678-.8474,6.0406-2.5414,1.5718-1.6946,2.3588-3.9418,2.3588-6.7416v-16.2074c0-1.5714.393-2.7374,1.178-3.4996.785-.761,1.9148-1.1418,3.39-1.1418,1.4716,0,2.6138.3808,3.4248,1.1418.8092.7624,1.2138,1.9282,1.2138,3.4996v27.8478c0,3.1438-1.4966,4.7152-4.4918,4.7152-1.4272,0-2.5308-.4056-3.3158-1.2162-.787-.8106-1.18-1.976-1.18-3.4992v-5.5994l1.0332,2.2102c-1.0332,2.6524-2.5916,4.6912-4.68,6.1154-2.0876,1.4242-4.5546,2.1362-7.4038,2.1362l.0004.0002Z"/><path class="uuid-41a8433d-d04f-42d3-9e5b-3b3bf089314b" d="m252.1897,67.6418c-1.5236,0-2.69-.4056-3.4992-1.2162-.811-.8106-1.2156-1.976-1.2156-3.4992v-27.8478c0-1.5222.393-2.6766,1.1798-3.4624.783-.785,1.8896-1.179,3.3158-1.179,1.4232,0,2.527.394,3.3128,1.179.786.786,1.179,1.9402,1.179,3.4624v4.641h-.7376c.6894-2.9464,2.0392-5.1812,4.0534-6.7044,2.0152-1.5218,4.6908-2.4308,8.0306-2.7252,1.0302-.098,1.8548.1602,2.467.7734.616.6146.9704,1.5598,1.068,2.8362.0984,1.2286-.1836,2.2232-.8448,2.984-.6654.7618-1.6598,1.2152-2.9854,1.3634l-1.6212.1468c-2.9952.2946-5.2546,1.2152-6.7772,2.7626-1.5208,1.5472-2.2836,3.7204-2.2836,6.5194v15.2506c0,1.5232-.393,2.6886-1.1798,3.4992-.785.8106-1.9408,1.2162-3.4616,1.2162h-.0004Z"/><path class="uuid-41a8433d-d04f-42d3-9e5b-3b3bf089314b" d="m289.1724,67.7892c-2.1126,0-4.346-.221-6.704-.6628-2.357-.4422-4.4686-1.203-6.3368-2.2844-.786-.4896-1.3364-1.068-1.656-1.7308-.3206-.6634-.4422-1.3266-.3688-1.989.0724-.6634.3196-1.2398.7376-1.7318.4172-.4906.957-.81,1.6202-.9578.6624-.1472,1.3866-.0242,2.1724.3684,1.9658.9342,3.8062,1.5844,5.525,1.9528,1.7188.3684,3.4132.5524,5.0836.5524,2.359,0,4.1134-.405,5.2672-1.2162,1.1558-.8096,1.7332-1.878,1.7332-3.2042,0-1.1298-.3824-2.0006-1.1412-2.6152-.7646-.6142-1.906-1.069-3.4278-1.3628l-7.3652-1.4002c-3.0482-.589-5.3686-1.7056-6.9626-3.352-1.597-1.6454-2.3946-3.768-2.3946-6.3726,0-2.3574.649-4.3948,1.9524-6.1144,1.2996-1.7182,3.1044-3.045,5.415-3.978,2.3068-.9332,4.961-1.4,7.9562-1.4,2.1618,0,4.1866.2332,6.0792.6996,1.8896.4678,3.7194,1.1916,5.4872,2.1734.7368.3936,1.2388.9092,1.5102,1.5474.2684.6388.3302,1.289.1844,1.9524-.1468.6634-.4422,1.2518-.8846,1.7674-.4422.516-.9944.8362-1.6578.9578-.6634.1236-1.4126-.0116-2.246-.404-1.5236-.7864-2.9844-1.3514-4.3836-1.6944-1.399-.3442-2.7382-.5162-4.0148-.5162-2.4082,0-4.1896.4176-5.3416,1.2518-1.1548.8356-1.7332,1.9412-1.7332,3.3158,0,1.0312.3446,1.8916,1.0342,2.578.6856.689,1.74,1.1544,3.166,1.3996l7.3672,1.4c3.1932.59,5.6118,1.6704,7.2572,3.2418,1.6462,1.5724,2.467,3.6836,2.467,6.3356,0,3.5862-1.3992,6.3978-4.2002,8.4356-2.7972,2.0388-6.53,3.0574-11.1966,3.0574v-.0004Z"/><rect class="uuid-41a8433d-d04f-42d3-9e5b-3b3bf089314b" x="26.1535" y="52.0916" width="2.8204" height="5.3936"/><path class="uuid-41a8433d-d04f-42d3-9e5b-3b3bf089314b" d="m27.6105,35.341c-.561.0178-16.6554-1.4748-18.6816,14.2966,0,0-2.9546,1.6212-2.9758,3.1048l43.2094.6006s-.5244-2.3754-3.0778-3.1882c0,0,.3548-15.4592-18.4742-14.8136v-.0002Z"/><path class="uuid-41a8433d-d04f-42d3-9e5b-3b3bf089314b" d="m24.5771,35.5292v-1.181s2.1434-1.4844,1.8056-2.2738h2.1764s1.304,2.2918,1.989,2.2738v1.22s-5.971-.039-5.971-.039Z"/><path class="uuid-41a8433d-d04f-42d3-9e5b-3b3bf089314b" d="m5.0573,56.1856l45.5822.0946s-1.4016,4.5314,3.871,6.4644c0,0,2.5118,2.2854,0,2.3932H1.4481s-2.932-.4124-.452-2.4662c0,0,4.1746-.767,4.0612-6.486Z"/><rect class="uuid-41a8433d-d04f-42d3-9e5b-3b3bf089314b" x="26.8299" y="29.3652" width="1.3938" height="3.5282"/><path class="uuid-41a8433d-d04f-42d3-9e5b-3b3bf089314b" d="m31.1337,28.9296c0,.3442-.28.6218-.6228.6218h-5.9696c-.3422,0-.6204-.2776-.6204-.6218h0c0-.3408.278-.619.6204-.619h5.9696c.3428,0,.6228.2782.6228.619h0Z"/><path class="uuid-41a8433d-d04f-42d3-9e5b-3b3bf089314b" d="m33.4487,37.9176s2.0292-.394,3.6846,1.3812c0,0,.9424.9284,1.1992,1.8476,0,0-.741-.923-2.4424-1.6366,0,0-1.651-.7044-2.452-.829,0,0-.7546-.7354.0106-.7634v.0002Z"/><polygon class="uuid-41a8433d-d04f-42d3-9e5b-3b3bf089314b" points="26.6337 6.8748 29.0753 0 30.8803 7.0588 37.4147 3.8492 33.5579 9.3308 40.4331 12.8342 33.3391 14.4336 36.2159 21.2448 30.4845 16.277 28.0561 23.9956 26.2437 16.097 19.2989 19.5768 23.1539 14.0084 16.0135 11.4628 23.3233 10.0312 20.4533 2.9358 26.6337 6.8748"/></svg>